<?xml version="1.0" encoding="utf-8"?>
<!-- Generator: Adobe Illustrator 25.0.1, SVG Export Plug-In . SVG Version: 6.00 Build 0)  -->
<svg version="1.1" id="Layer_1" xmlns="http://www.w3.org/2000/svg" xmlns:xlink="http://www.w3.org/1999/xlink" x="0px" y="0px"
	 viewBox="0 0 152 152" style="enable-background:new 0 0 152 152;" xml:space="preserve">
<style type="text/css">
	.st0{fill:#F037A5;}
	.st1{fill:#FFFFFF;}
	.st2{fill:#40E0D0;}
</style>
<g>
	<g>
		<ellipse class="st0" cx="76" cy="91.6" rx="55.1" ry="56.6"/>
		<g>
			<path class="st1" d="M45.3,64.6h10.5v21.2h18.4V64.6h10.5v56.2H74.2V96.3H56v24.5H45.5V64.6H45.3z"/>
			<path class="st1" d="M100.1,62.2c1.8,0,3.4,0.7,4.6,2c1.2,1.3,2,2.9,2,4.8c0,1.8-0.7,3.5-2,4.8c-1.2,1.3-2.9,2-4.5,2
				c-1.8,0-3.4-0.7-4.6-2c-1.2-1.3-2-2.9-2-4.9c0-1.8,0.7-3.5,2-4.8C96.9,62.8,98.3,62.2,100.1,62.2z M95.1,79.3h10.2v41.6H95.1
				V79.3z"/>
		</g>
	</g>
	<g>
		<circle class="st2" cx="104.1" cy="30.8" r="27"/>
	</g>
</g>
</svg>
