<?xml version="1.0" encoding="utf-8"?>
<!-- Generator: Adobe Illustrator 25.0.1, SVG Export Plug-In . SVG Version: 6.00 Build 0)  -->
<svg version="1.1" xmlns="http://www.w3.org/2000/svg" xmlns:xlink="http://www.w3.org/1999/xlink" x="0px" y="0px"
	 viewBox="0 0 1280 720" style="enable-background:new 0 0 1280 720;" xml:space="preserve">
<style type="text/css">
	.st0{fill:#FFFFFF;}
	.st1{display:none;}
	.st2{display:inline;}
	.st3{fill:#2591DA;}
	.st4{display:inline;fill:#2591DA;}
	.st5{fill:#A7D3F0;}
	.st6{fill:#01257B;}
	.st7{fill:#66B2E5;}
	.st8{fill:#D7E8F2;}
</style>
<g id="Layer_1">
	<g id="background">
		<rect class="st0" width="1280" height="720"/>
	</g>
	<g class="st1">
		<g class="st2">
			<path class="st3" d="M499.6,651.1h-87.8c-6.8,0-12.2-5.5-12.2-12.2v-87.8c0-6.8,5.5-12.2,12.2-12.2h87.8
				c6.8,0,12.2,5.5,12.2,12.2v87.8C511.8,645.6,506.3,651.1,499.6,651.1z"/>
			<path class="st0" d="M473.2,596.6l9.5,9.5l9.5,9.5c1.8,1.8,1.8,4.6,0,6.4l-9.5,9.5c-1.8,1.8-4.6,1.8-6.4,0l-9.5-9.5l-9.5-9.5
				c-0.9-0.9-2.3-0.9-3.1,0l-9.5,9.5l-9.5,9.5c-1.8,1.8-4.6,1.8-6.4,0l-9.4-9.5c-1.8-1.8-1.8-4.6,0-6.4l19-19.1
				c0.9-0.9,0.9-2.3,0-3.1l-9.5-9.5l-9.5-9.5c-1.8-1.8-1.8-4.6,0-6.4l9.5-9.5c1.8-1.8,4.6-1.8,6.4,0l9.5,9.5l9.5,9.5
				c0.9,0.9,2.3,0.9,3.2,0l19-19c1.8-1.8,4.6-1.8,6.4,0l9.5,9.5c1.8,1.8,1.8,4.6,0,6.4l-19,19.1
				C472.3,594.3,472.3,595.8,473.2,596.6z"/>
		</g>
		<path class="st4" d="M354.7,548c-18.5,0-33.4,14.8-33.7,33.2l0,0V609l0,0c0.7,17.9,15.4,32.3,33.6,32.3s32.9-14.3,33.6-32.3l0,0
			v-27.8l0,0C388.2,562.8,373.2,548,354.7,548z M366,608.1L366,608.1c-0.2,6-5.2,10.8-11.2,10.8s-11-4.8-11.2-10.8l0,0v-26.9l0,0
			c0.2-6,5.2-10.8,11.2-10.8s11,4.8,11.2,10.8l0,0V608.1L366,608.1z M305.4,549.8h-35.9c-2.5,0-4.5,2-4.5,4.5v13.5
			c0,2.5,2,4.5,4.5,4.5h15.7c1.2,0,2.2,1,2.2,2.2V635c0,2.5,2,4.5,4.5,4.5h13.5c2.5,0,4.5-2,4.5-4.5v-80.9
			C309.9,551.8,307.8,549.8,305.4,549.8z"/>
		<g id="evolve_3_" class="st2">
			<g>
				<g>
					<path class="st5" d="M696.3,549.8h-15.2c-2.5,0-5.3,1.8-6.4,4l-16.9,36.7c-1,2.2-2.7,2.2-3.8,0l-16.9-36.7
						c-1.1-2.2-3.9-4-6.4-4h-15.2c-2.5,0-3.6,1.8-2.6,4l40.9,84.9c1.1,2.2,2.9,2.2,3.9,0l41-85C699.9,551.6,698.8,549.8,696.3,549.8
						z M596.9,549.8h-58.3c-2.5,0-4.5,2-4.5,4.5v80.8c0,2.5,2,4.5,4.5,4.5h58.3c2.5,0,4.5-2,4.5-4.5v-13.5c0-2.5-2-4.5-4.5-4.5
						h-38.1c-1.2,0-2.2-1-2.2-2.2v-6.7c0-1.2,1-2.2,2.2-2.2h15.7c2.5,0,4.5-2,4.5-4.5V588c0-2.5-2-4.5-4.5-4.5h-15.7
						c-1.2,0-2.2-1-2.2-2.2v-6.8c0-1.2,1-2.2,2.2-2.2h38.1c2.5,0,4.5-2,4.5-4.5v-13.4C601.4,551.8,599.4,549.8,596.9,549.8z
						 M933.6,549.8h-15.2c-2.5,0-5.3,1.8-6.4,4l-17,36.7c-1,2.2-2.7,2.2-3.8,0l-16.9-36.7c-1.1-2.2-3.9-4-6.4-4h-15.2
						c-2.5,0-3.6,1.8-2.6,4l41,84.9c1.1,2.2,2.8,2.2,3.9,0l41-84.9C937.2,551.6,936,549.8,933.6,549.8z M972.4,572.2h38.1
						c2.5,0,4.5-2,4.5-4.5v-13.5c0-2.5-2-4.5-4.5-4.5h-58.4c-2.5,0-4.5,2-4.5,4.5V635c0,2.5,2,4.5,4.5,4.5h58.4c2.5,0,4.5-2,4.5-4.5
						v-13.5c0-2.5-2-4.5-4.5-4.5h-38.1c-1.2,0-2.2-1-2.2-2.2V608c0-1.2,1-2.2,2.2-2.2h15.7c2.5,0,4.5-2,4.5-4.5v-13.5
						c0-2.5-2-4.5-4.5-4.5h-15.7c-1.2,0-2.2-1-2.2-2.2v-6.8C970.1,573.2,971.2,572.2,972.4,572.2z M742.4,549.8
						c-24.8,0-44.8,20.1-44.8,44.8s20.1,44.8,44.8,44.8s44.8-20.1,44.8-44.8C787.2,569.8,767.1,549.8,742.4,549.8z M742.4,617.1
						c-12.4,0-22.4-10.1-22.4-22.4s10.1-22.4,22.4-22.4s22.4,10.1,22.4,22.4S754.8,617.1,742.4,617.1z M861.2,617.1h-38.1
						c-1.2,0-2.2-1-2.2-2.2v-60.5c0-2.5-2-4.5-4.5-4.5h-13.5c-2.5,0-4.5,2-4.5,4.5v80.8c0,2.5,2,4.5,4.5,4.5h58.3
						c2.5,0,4.5-2,4.5-4.5v-13.5C865.8,619.1,863.7,617.1,861.2,617.1z"/>
				</g>
			</g>
		</g>
	</g>
</g>
<g id="color">
	<g>
		<g id="logo_x5F_on_x5F_white">
			<g>
				<g>
					<path class="st6" d="M499.6,216.1h-87.8c-6.8,0-12.2-5.5-12.2-12.2v-87.8c0-6.8,5.5-12.2,12.2-12.2h87.8
						c6.8,0,12.2,5.5,12.2,12.2v87.8C511.8,210.6,506.3,216.1,499.6,216.1z"/>
					<path class="st0" d="M473.2,161.6l9.5,9.5l9.5,9.5c1.8,1.8,1.8,4.6,0,6.4l-9.5,9.5c-1.8,1.8-4.6,1.8-6.4,0l-9.5-9.5l-9.5-9.5
						c-0.9-0.9-2.3-0.9-3.1,0l-9.5,9.5l-9.5,9.5c-1.8,1.8-4.6,1.8-6.4,0l-9.4-9.5c-1.8-1.8-1.8-4.6,0-6.4l19-19
						c0.9-0.9,0.9-2.3,0-3.2l-9.5-9.5l-9.5-9.5c-1.8-1.8-1.8-4.6,0-6.4l9.5-9.5c1.8-1.8,4.6-1.8,6.4,0l9.5,9.5l9.5,9.5
						c0.9,0.9,2.3,0.9,3.2,0l19-19.1c1.8-1.8,4.6-1.8,6.4,0l9.5,9.5c1.8,1.8,1.8,4.6,0,6.4l-19,19
						C472.3,159.3,472.3,160.8,473.2,161.6z"/>
				</g>
				<path class="st6" d="M354.7,113c-18.5,0-33.4,14.9-33.7,33.2l0,0V174l0,0c0.7,17.9,15.4,32.3,33.6,32.3s32.9-14.3,33.6-32.3l0,0
					v-27.8l0,0C388.2,127.8,373.2,113,354.7,113z M366,173L366,173c-0.2,6-5.2,10.8-11.2,10.8s-11-4.8-11.2-10.8l0,0v-26.9l0,0
					c0.2-6,5.2-10.8,11.2-10.8s11,4.8,11.2,10.8l0,0V173L366,173z M305.4,114.8h-35.9c-2.5,0-4.5,2-4.5,4.5v13.5
					c0,2.5,2,4.5,4.5,4.5h15.7c1.2,0,2.2,1,2.2,2.2V200c0,2.5,2,4.5,4.5,4.5h13.5c2.5,0,4.5-2,4.5-4.5v-80.9
					C309.9,116.8,307.8,114.8,305.4,114.8z"/>
				<g id="evolve_1_">
					<g>
						<g>
							<path class="st3" d="M696.3,114.8h-15.2c-2.5,0-5.3,1.8-6.4,4l-16.9,36.7c-1,2.2-2.7,2.2-3.8,0l-16.9-36.7
								c-1.1-2.2-3.9-4-6.4-4h-15.2c-2.5,0-3.6,1.8-2.6,4l40.9,84.9c1.1,2.2,2.9,2.2,3.9,0l41-85
								C699.9,116.6,698.8,114.8,696.3,114.8z M596.9,114.8h-58.3c-2.5,0-4.5,2-4.5,4.5v80.8c0,2.5,2,4.5,4.5,4.5h58.3
								c2.5,0,4.5-2,4.5-4.5v-13.5c0-2.5-2-4.5-4.5-4.5h-38.1c-1.2,0-2.2-1-2.2-2.2v-6.7c0-1.2,1-2.2,2.2-2.2h15.7
								c2.5,0,4.5-2,4.5-4.5V153c0-2.5-2-4.5-4.5-4.5h-15.7c-1.2,0-2.2-1-2.2-2.2v-6.8c0-1.2,1-2.2,2.2-2.2h38.1
								c2.5,0,4.5-2,4.5-4.5v-13.4C601.4,116.8,599.4,114.8,596.9,114.8z M933.6,114.8h-15.2c-2.5,0-5.3,1.8-6.4,4l-17,36.7
								c-1,2.2-2.7,2.2-3.8,0l-16.9-36.7c-1.1-2.2-3.9-4-6.4-4h-15.2c-2.5,0-3.6,1.8-2.6,4l41,84.9c1.1,2.2,2.8,2.2,3.9,0l41-84.9
								C937.2,116.6,936,114.8,933.6,114.8z M972.4,137.2h38.1c2.5,0,4.5-2,4.5-4.5v-13.5c0-2.5-2-4.5-4.5-4.5h-58.4
								c-2.5,0-4.5,2-4.5,4.5V200c0,2.5,2,4.5,4.5,4.5h58.4c2.5,0,4.5-2,4.5-4.5v-13.5c0-2.5-2-4.5-4.5-4.5h-38.1
								c-1.2,0-2.2-1-2.2-2.2V173c0-1.2,1-2.2,2.2-2.2h15.7c2.5,0,4.5-2,4.5-4.5v-13.5c0-2.5-2-4.5-4.5-4.5h-15.7
								c-1.2,0-2.2-1-2.2-2.2v-6.8C970.1,138.2,971.2,137.2,972.4,137.2z M742.4,114.8c-24.8,0-44.8,20.1-44.8,44.8
								s20.1,44.8,44.8,44.8s44.8-20.1,44.8-44.8C787.2,134.8,767.1,114.8,742.4,114.8z M742.4,182c-12.4,0-22.4-10-22.4-22.4
								s10.1-22.4,22.4-22.4s22.4,10,22.4,22.4S754.8,182,742.4,182z M861.2,182h-38.1c-1.2,0-2.2-1-2.2-2.2v-60.5
								c0-2.5-2-4.5-4.5-4.5h-13.5c-2.5,0-4.5,2-4.5,4.5v80.8c0,2.5,2,4.5,4.5,4.5h58.3c2.5,0,4.5-2,4.5-4.5v-13.5
								C865.8,184.1,863.7,182,861.2,182z"/>
						</g>
					</g>
				</g>
			</g>
		</g>
		<g>
			<path class="st6" d="M1025,466.1H255c-8.3,0-15-6.7-15-15v-120c0-8.3,6.7-15,15-15h770c8.3,0,15,6.7,15,15v120
				C1040,459.4,1033.3,466.1,1025,466.1z"/>
			<g>
				<g>
					<path class="st0" d="M499.6,447.2h-87.8c-6.8,0-12.2-5.5-12.2-12.2v-87.8c0-6.8,5.5-12.2,12.2-12.2h87.8
						c6.8,0,12.2,5.5,12.2,12.2V435C511.8,441.7,506.3,447.2,499.6,447.2z"/>
					<path class="st6" d="M473.2,392.7l9.5,9.5l9.5,9.5c1.8,1.8,1.8,4.6,0,6.4l-9.5,9.5c-1.8,1.8-4.6,1.8-6.4,0l-9.5-9.5l-9.5-9.5
						c-0.9-0.9-2.3-0.9-3.1,0l-9.5,9.5l-9.5,9.5c-1.8,1.8-4.6,1.8-6.4,0l-9.4-9.5c-1.8-1.8-1.8-4.6,0-6.4l19-19.1
						c0.9-0.9,0.9-2.3,0-3.1l-9.5-9.5l-9.5-9.5c-1.8-1.8-1.8-4.6,0-6.4l9.5-9.5c1.8-1.8,4.6-1.8,6.4,0l9.5,9.5l9.5,9.5
						c0.9,0.9,2.3,0.9,3.2,0l19-19.1c1.8-1.8,4.6-1.8,6.4,0l9.5,9.5c1.8,1.8,1.8,4.6,0,6.4l-19,19.1
						C472.3,390.4,472.3,391.9,473.2,392.7z"/>
				</g>
				<path class="st0" d="M354.7,344.1c-18.5,0-33.4,14.8-33.7,33.2l0,0v27.8l0,0c0.7,17.9,15.4,32.3,33.6,32.3s32.9-14.3,33.6-32.3
					l0,0v-27.8l0,0C388.2,358.9,373.2,344.1,354.7,344.1z M366,404.2L366,404.2c-0.2,6-5.2,10.8-11.2,10.8s-11-4.8-11.2-10.8l0,0
					v-26.9l0,0c0.2-6,5.2-10.8,11.2-10.8s11,4.8,11.2,10.8l0,0V404.2L366,404.2z M305.4,345.9h-35.9c-2.5,0-4.5,2-4.5,4.5v13.5
					c0,2.5,2,4.5,4.5,4.5h15.7c1.2,0,2.2,1,2.2,2.2v60.5c0,2.5,2,4.5,4.5,4.5h13.5c2.5,0,4.5-2,4.5-4.5v-80.8
					C309.9,347.9,307.8,345.9,305.4,345.9z"/>
				<g id="evolve_2_">
					<g>
						<g>
							<path class="st7" d="M696.3,345.9h-15.2c-2.5,0-5.3,1.8-6.4,4.1l-16.9,36.7c-1,2.2-2.7,2.2-3.8,0L637.1,350
								c-1.1-2.2-3.9-4-6.4-4h-15.2c-2.5,0-3.6,1.8-2.6,4l40.9,84.9c1.1,2.2,2.9,2.2,3.9,0l41-85
								C699.9,347.7,698.8,345.9,696.3,345.9z M596.9,345.9h-58.3c-2.5,0-4.5,2-4.5,4.5v80.8c0,2.5,2,4.5,4.5,4.5h58.3
								c2.5,0,4.5-2,4.5-4.5v-13.5c0-2.5-2-4.5-4.5-4.5h-38.1c-1.2,0-2.2-1-2.2-2.2v-6.7c0-1.2,1-2.2,2.2-2.2h15.7
								c2.5,0,4.5-2,4.5-4.5v-13.5c0-2.5-2-4.5-4.5-4.5h-15.7c-1.2,0-2.2-1-2.2-2.2v-6.8c0-1.2,1-2.2,2.2-2.2h38.1
								c2.5,0,4.5-2,4.5-4.5v-13.6C601.4,347.9,599.4,345.9,596.9,345.9z M933.6,345.9h-15.2c-2.5,0-5.3,1.8-6.4,4.1l-17,36.7
								c-1,2.2-2.7,2.2-3.8,0L874.3,350c-1.1-2.2-3.9-4-6.4-4h-15.2c-2.5,0-3.6,1.8-2.6,4l41,84.9c1.1,2.2,2.8,2.2,3.9,0l41-84.9
								C937.2,347.7,936,345.9,933.6,345.9z M972.4,368.3h38.1c2.5,0,4.5-2,4.5-4.5v-13.5c0-2.5-2-4.5-4.5-4.5h-58.4
								c-2.5,0-4.5,2-4.5,4.5v80.8c0,2.5,2,4.5,4.5,4.5h58.4c2.5,0,4.5-2,4.5-4.5v-13.5c0-2.5-2-4.5-4.5-4.5h-38.1
								c-1.2,0-2.2-1-2.2-2.2v-6.7c0-1.2,1-2.3,2.2-2.3h15.7c2.5,0,4.5-2,4.5-4.5v-13.5c0-2.5-2-4.5-4.5-4.5h-15.7
								c-1.2,0-2.2-1-2.2-2.2v-6.8C970.1,369.3,971.2,368.3,972.4,368.3z M742.4,345.9c-24.8,0-44.8,20.1-44.8,44.8
								c0,24.7,20.1,44.9,44.8,44.9s44.8-20.1,44.8-44.9S767.1,345.9,742.4,345.9z M742.4,413.2c-12.4,0-22.4-10.1-22.4-22.4
								c0-12.3,10.1-22.4,22.4-22.4s22.4,10,22.4,22.4S754.8,413.2,742.4,413.2z M861.2,413.2h-38.1c-1.2,0-2.2-1-2.2-2.2v-60.6
								c0-2.5-2-4.5-4.5-4.5h-13.5c-2.5,0-4.5,2-4.5,4.5v80.8c0,2.5,2,4.5,4.5,4.5h58.3c2.5,0,4.5-2,4.5-4.5v-13.5
								C865.8,415.2,863.7,413.2,861.2,413.2z"/>
						</g>
					</g>
				</g>
			</g>
		</g>
		<g>
			<path class="st6" d="M280,616.1h-30c-5.5,0-10-4.5-10-10v-30c0-5.5,4.5-10,10-10h30c5.5,0,10,4.5,10,10v30
				C290,611.6,285.5,616.1,280,616.1z"/>
			<path class="st3" d="M380,616.1h-30c-5.5,0-10-4.5-10-10v-30c0-5.5,4.5-10,10-10h30c5.5,0,10,4.5,10,10v30
				C390,611.6,385.5,616.1,380,616.1z"/>
			<path class="st7" d="M480,616.1h-30c-5.5,0-10-4.5-10-10v-30c0-5.5,4.5-10,10-10h30c5.5,0,10,4.5,10,10v30
				C490,611.6,485.5,616.1,480,616.1z"/>
			<path class="st5" d="M580,616.1h-30c-5.5,0-10-4.5-10-10v-30c0-5.5,4.5-10,10-10h30c5.5,0,10,4.5,10,10v30
				C590,611.6,585.5,616.1,580,616.1z"/>
			<path class="st8" d="M680,616.1h-30c-5.5,0-10-4.5-10-10v-30c0-5.5,4.5-10,10-10h30c5.5,0,10,4.5,10,10v30
				C690,611.6,685.5,616.1,680,616.1z"/>
		</g>
	</g>
</g>
</svg>
