<?xml version="1.0" encoding="utf-8"?>
<!-- Generator: Adobe Illustrator 25.0.1, SVG Export Plug-In . SVG Version: 6.00 Build 0)  -->
<svg version="1.1" xmlns="http://www.w3.org/2000/svg" xmlns:xlink="http://www.w3.org/1999/xlink" x="0px" y="0px"
	 viewBox="0 0 1280 720" style="enable-background:new 0 0 1280 720;" xml:space="preserve">
<style type="text/css">
	.st0{fill:#FFFFFF;}
	.st1{fill:#8A0054;}
	.st2{fill:#C3D941;}
</style>
<g id="Layer_2">
	<rect y="0" class="st0" width="1280" height="720"/>
</g>
<g id="Layer_1">
	<g>
		<path class="st1" d="M544.6,518.1c1.8-1.2,3.4-2.7,4.7-4.6c1.3-1.9,2.2-4.1,2.8-6.5c0.6-2.5,0.9-5,0.9-7.6c0-2.5-0.3-5-0.8-7.6
			c-0.5-2.5-1.4-4.8-2.6-6.9c-1.2-2.1-2.7-3.7-4.6-5c-1.9-1.3-4.2-1.9-6.9-1.9c-2.7,0-5,0.6-6.9,1.8c-1.9,1.2-3.5,2.8-4.7,4.8
			c-1.3,2-2.2,4.3-2.7,6.8c-0.6,2.6-0.9,5.2-0.9,7.8c0,2.6,0.3,5.1,0.9,7.6c0.6,2.5,1.5,4.6,2.8,6.5c1.3,1.9,2.8,3.4,4.7,4.6
			c1.9,1.2,4.2,1.7,6.8,1.7C540.6,519.9,542.7,519.3,544.6,518.1 M557.5,531.8c-0.7,3.1-1.9,5.6-3.5,7.8c-1.6,2.1-3.7,3.7-6.3,4.9
			c-2.6,1.1-5.8,1.7-9.5,1.7c-2.3,0-4.6-0.3-6.8-0.9c-2.2-0.6-4.2-1.5-6-2.8c-1.8-1.3-3.2-2.9-4.4-4.8c-1.2-2-1.8-4.3-2-7h5.6
			c0.3,1.9,0.9,3.5,1.7,4.8c0.9,1.3,1.9,2.3,3.1,3.1c1.2,0.8,2.6,1.4,4.1,1.7c1.5,0.4,3,0.5,4.6,0.5c5.3,0,9-1.7,11.4-5
			c2.3-3.3,3.5-8.1,3.5-14.3v-7h-0.2c-1.3,3.2-3.2,5.7-5.8,7.7c-2.5,1.9-5.5,2.9-8.9,2.9c-3.7,0-6.9-0.7-9.5-2
			c-2.6-1.4-4.8-3.2-6.5-5.6c-1.7-2.4-2.9-5.2-3.7-8.4c-0.8-3.2-1.2-6.6-1.2-10.3c0-3.5,0.5-6.8,1.4-10c0.9-3.2,2.3-5.9,4-8.3
			c1.8-2.4,3.9-4.2,6.5-5.6c2.6-1.4,5.6-2,8.9-2c1.7,0,3.4,0.3,4.9,0.8c1.5,0.5,2.9,1.3,4.2,2.2c1.3,1,2.4,2.1,3.4,3.3
			c1,1.3,1.7,2.6,2.3,4h0.2v-8.9h5.6v47.2C558.6,525.3,558.3,528.7,557.5,531.8 M454.7,474.4v8.9h0.2c1.1-3.1,3-5.6,5.7-7.5
			c2.7-1.9,5.8-2.8,9-2.8c3.2,0,5.9,0.5,8.1,1.4c2.2,0.9,3.9,2.2,5.2,3.9c1.3,1.7,2.2,3.8,2.8,6.2c0.5,2.5,0.8,5.2,0.8,8.3v33h-5.6
			v-32c0-2.2-0.2-4.2-0.5-6.1c-0.4-1.9-1-3.5-1.9-4.9c-0.9-1.4-2.1-2.5-3.6-3.3c-1.5-0.8-3.4-1.2-5.7-1.2c-2.3,0-4.3,0.4-6,1.3
			c-1.8,0.9-3.3,2.1-4.5,3.7c-1.2,1.6-2.2,3.4-2.9,5.6c-0.7,2.2-1.1,4.5-1.1,7v29.9H449v-51.3H454.7z M415.9,525.7h-5.6v-51.3h5.6
			V525.7z M415.9,464.7h-5.6v-10.1h5.6V464.7z M347.4,474.4l14.5,45.1h0.2l14.3-45.1h5.8l-17.3,51.3h-6l-17.8-51.3H347.4z
			 M303,475.1c2.7,1.5,5,3.4,6.9,5.9c1.8,2.5,3.3,5.3,4.2,8.6c1,3.3,1.4,6.8,1.4,10.5c0,3.7-0.5,7.2-1.4,10.5
			c-1,3.3-2.4,6.2-4.2,8.6c-1.9,2.5-4.1,4.4-6.9,5.8c-2.7,1.4-5.8,2.1-9.4,2.1c-3.5,0-6.6-0.7-9.4-2.1c-2.7-1.4-5-3.4-6.8-5.8
			c-1.9-2.5-3.3-5.3-4.2-8.6c-1-3.3-1.4-6.8-1.4-10.5c0-3.7,0.5-7.2,1.4-10.5c1-3.3,2.4-6.2,4.2-8.6c1.8-2.5,4.1-4.4,6.8-5.9
			c2.7-1.5,5.8-2.2,9.4-2.2C297.2,472.9,300.3,473.6,303,475.1 M286.6,480.1c-2,1.3-3.7,2.9-5.1,5c-1.3,2.1-2.4,4.4-3,7
			c-0.7,2.6-1,5.3-1,8c0,2.7,0.3,5.4,1,8c0.7,2.6,1.7,5,3,7c1.3,2.1,3,3.7,5.1,5c2,1.3,4.4,1.9,7.1,1.9c2.7,0,5-0.6,7.1-1.9
			c2-1.3,3.7-2.9,5.1-5c1.3-2.1,2.4-4.4,3-7c0.7-2.6,1-5.3,1-8c0-2.7-0.3-5.4-1-8c-0.7-2.6-1.7-5-3-7c-1.3-2.1-3-3.7-5.1-5
			c-2-1.3-4.4-1.9-7.1-1.9C291,478.2,288.6,478.8,286.6,480.1 M182.4,474.4v8.7h0.3c1.5-3.2,3.4-5.7,5.9-7.5
			c2.4-1.8,5.5-2.7,9.3-2.7c3,0,5.8,0.8,8.3,2.5c2.5,1.7,4.1,4.2,5,7.6c1.4-3.4,3.4-5.9,6.1-7.6c2.7-1.7,5.6-2.5,8.6-2.5
			c10.2,0,15.3,6,15.3,18v34.8h-5.6v-34.5c0-4.2-0.8-7.5-2.4-9.7c-1.6-2.2-4.4-3.3-8.5-3.3c-2.4,0-4.5,0.5-6.1,1.5
			c-1.6,1-2.9,2.4-3.9,4.1c-1,1.7-1.6,3.7-2,5.9c-0.4,2.2-0.6,4.5-0.6,6.9v29.1h-5.6v-34.8c0-1.7-0.2-3.4-0.5-4.9
			c-0.3-1.6-0.9-2.9-1.6-4.1c-0.7-1.2-1.7-2.1-3-2.7c-1.3-0.7-2.8-1-4.6-1c-2.4,0-4.5,0.5-6.2,1.4c-1.8,1-3.2,2.3-4.3,4
			c-1.1,1.7-1.9,3.7-2.5,6c-0.5,2.3-0.8,4.8-0.8,7.5v28.7h-5.6v-51.3H182.4z"/>
		<path class="st1" d="M1071,474.7v8.9h0.2c1.1-3.1,3-5.6,5.7-7.5c2.7-1.9,5.8-2.8,9-2.8c3.2,0,5.9,0.5,8.1,1.4
			c2.2,0.9,3.9,2.2,5.2,3.9c1.3,1.7,2.2,3.8,2.8,6.2c0.5,2.5,0.8,5.2,0.8,8.3v33h-5.6v-32c0-2.2-0.2-4.2-0.5-6.1
			c-0.4-1.9-1-3.5-1.9-4.9c-0.9-1.4-2.1-2.5-3.6-3.3c-1.5-0.8-3.4-1.2-5.7-1.2c-2.3,0-4.3,0.4-6,1.3c-1.8,0.9-3.3,2.1-4.5,3.7
			c-1.2,1.6-2.2,3.4-2.9,5.6c-0.7,2.2-1.1,4.5-1.1,7V526h-5.6v-51.3H1071z M1022.1,475.4c2.7,1.5,5,3.4,6.9,5.9
			c1.8,2.5,3.3,5.3,4.2,8.6c1,3.3,1.4,6.8,1.4,10.5c0,3.7-0.5,7.2-1.4,10.5c-1,3.3-2.4,6.2-4.2,8.6c-1.9,2.5-4.1,4.4-6.9,5.8
			c-2.7,1.4-5.8,2.1-9.4,2.1c-3.5,0-6.6-0.7-9.4-2.1c-2.7-1.4-5-3.4-6.9-5.8c-1.9-2.5-3.3-5.3-4.2-8.6c-1-3.3-1.4-6.8-1.4-10.5
			c0-3.7,0.5-7.2,1.4-10.5c1-3.3,2.4-6.2,4.2-8.6c1.8-2.5,4.1-4.4,6.9-5.9c2.7-1.5,5.8-2.2,9.4-2.2
			C1016.3,473.2,1019.4,473.9,1022.1,475.4 M1005.7,480.3c-2,1.3-3.7,2.9-5.1,5c-1.3,2.1-2.4,4.4-3,7c-0.7,2.6-1,5.3-1,8
			c0,2.7,0.3,5.4,1,8c0.7,2.6,1.7,5,3,7c1.3,2.1,3,3.7,5.1,5c2,1.3,4.4,1.9,7.1,1.9c2.7,0,5-0.6,7.1-1.9c2-1.3,3.7-2.9,5.1-5
			c1.3-2.1,2.4-4.4,3-7c0.7-2.6,1-5.3,1-8c0-2.7-0.3-5.4-1-8c-0.7-2.6-1.7-5-3-7c-1.3-2.1-3-3.7-5.1-5c-2-1.3-4.4-1.9-7.1-1.9
			C1010.1,478.5,1007.7,479.1,1005.7,480.3 M963.9,520.7v5.3h-38.6v-5.1l30.2-41h-28.1v-5.3h35.3v4.5l-30.5,41.6H963.9z M896.2,526
			h-5.6v-51.3h5.6V526z M896.2,465h-5.6v-10h5.6V465z M845,474.7v12h0.2c1.4-4.2,3.7-7.4,6.7-9.7c3-2.3,6.6-3.3,10.8-3.1v6.3
			c-2.6-0.1-4.9,0.2-7,1.1c-2.1,0.9-3.9,2.2-5.4,3.8c-1.5,1.7-2.7,3.6-3.5,5.9c-0.8,2.3-1.3,4.8-1.3,7.5V526h-5.6v-51.3H845z
			 M796.5,475.4c2.7,1.5,5,3.4,6.9,5.9c1.9,2.5,3.3,5.3,4.2,8.6c1,3.3,1.4,6.8,1.4,10.5c0,3.7-0.5,7.2-1.4,10.5
			c-1,3.3-2.4,6.2-4.2,8.6c-1.9,2.5-4.1,4.4-6.9,5.8c-2.7,1.4-5.8,2.1-9.4,2.1c-3.5,0-6.6-0.7-9.4-2.1c-2.7-1.4-5-3.4-6.9-5.8
			c-1.9-2.5-3.3-5.3-4.2-8.6c-1-3.3-1.4-6.8-1.4-10.5c0-3.7,0.5-7.2,1.4-10.5c1-3.3,2.4-6.2,4.2-8.6c1.9-2.5,4.1-4.4,6.9-5.9
			c2.7-1.5,5.8-2.2,9.4-2.2C790.7,473.2,793.8,473.9,796.5,475.4 M780.1,480.3c-2,1.3-3.7,2.9-5.1,5c-1.3,2.1-2.4,4.4-3,7
			c-0.7,2.6-1,5.3-1,8c0,2.7,0.3,5.4,1,8c0.7,2.6,1.7,5,3,7c1.3,2.1,3,3.7,5.1,5c2,1.3,4.4,1.9,7.1,1.9s5-0.6,7.1-1.9
			c2-1.3,3.7-2.9,5.1-5c1.3-2.1,2.4-4.4,3-7c0.7-2.6,1-5.3,1-8c0-2.7-0.3-5.4-1-8c-0.7-2.6-1.7-5-3-7c-1.3-2.1-3-3.7-5.1-5
			c-2-1.3-4.4-1.9-7.1-1.9S782.1,479.1,780.1,480.3 M702.7,455v28.6h0.2c1.1-3.1,3-5.6,5.7-7.5c2.7-1.9,5.8-2.8,9-2.8
			c3.2,0,5.9,0.5,8.1,1.4c2.2,0.9,3.9,2.2,5.2,3.9c1.3,1.7,2.2,3.8,2.8,6.2c0.5,2.5,0.8,5.2,0.8,8.3v33H729v-32
			c0-2.2-0.2-4.2-0.5-6.1c-0.4-1.9-1-3.5-1.9-4.9c-0.9-1.4-2.1-2.5-3.6-3.3c-1.5-0.8-3.4-1.2-5.7-1.2c-2.3,0-4.3,0.4-6,1.3
			c-1.8,0.9-3.3,2.1-4.5,3.7c-1.2,1.6-2.2,3.4-2.9,5.6c-0.7,2.2-1.1,4.5-1.1,7V526h-5.6v-71H702.7z"/>
		<path class="st2" d="M705.8,240c-0.1,0.3-0.2,0.5-0.3,0.8c-3.4-1-6.1-2.2-7.9-3.2c0.7-4.2,0.9-8.6,0.2-12.8
			c-0.2-1.4-0.5-2.8-0.9-4.2c-0.7-2.7-1.6-5.2-3-7.6c-2.6-4.6-6.2-8.2-10.5-11.3c-2.2-1.6-4.6-2.9-7.1-4c1.5-2.2,2.6-4.6,3.5-6.8
			c6.4,1.5,13.3,3.9,17.9,8.3c4.5,4.2,7.8,9.3,9.8,15.4C710.3,222.4,708.3,231.3,705.8,240 M679.1,190.6c-1.1,3.1-2.4,5.4-3.2,6.8
			c-0.1,0-0.1-0.1-0.2-0.1c-5.8-2.3-12-2.6-18-0.8c-0.2,0.1-0.4,0.2-0.6,0.2c0.6-1.9,1-3.9,1.2-5.7c6.4-1.9,12.8-2.2,19.3-0.8
			C678.1,190.3,678.6,190.5,679.1,190.6 M657.6,191.2c-0.3,2.6-0.8,4.6-1.1,5.8c-3.8,1.3-7.3,3.2-10.4,5.5c-1-0.9-2.4-2.1-3.7-3.6
			c4.2-3.1,8.6-5.5,13.3-7.2C656.3,191.6,657,191.4,657.6,191.2 M641.8,199.5c1.1,1.2,2.4,2.4,3.8,3.5c-2.8,2.2-5.4,4.8-7.7,7.8
			c-0.6,0.8-1.1,1.7-1.7,2.5c-1.1-1.9-2.3-3.7-3.7-5.2C635.4,204.8,638.5,201.9,641.8,199.5 M632,208.7c1.8,2,3.1,3.9,3.8,5.2
			c-0.6,0.9-1.2,1.7-1.7,2.6c-2.3,3.9-3.8,8.4-5,12.9c-2.1-2.2-4.4-3.9-6.8-5.2C624.6,218.9,627.7,213.7,632,208.7 M622,224.9
			c3.6,2,6.1,4.3,7,5.1c-0.7,2.7-1.2,5.4-1.6,7.9c-0.5,3-0.6,5.8-0.6,8.5c-2.9-0.9-5.8-1.3-8.4-1.3C618,238.1,619.3,231.4,622,224.9
			 M618.3,245.9c3.7,0,6.7,0.7,8.4,1.1c0.1,3.7,0.7,7.2,1.9,10.4c0.7,1.8,1.5,3.5,2.4,5.1c-1,1.3-2.7,3.4-5.2,5.4
			c-4.5-5.8-6.8-12.7-7.6-20.2C618.2,247.1,618.4,246.5,618.3,245.9 M626.4,268.5c1.8-1.5,3.5-3.4,5-5.5c2.4,4,5.7,7.3,9.8,9.8
			c-1.8,1.3-3.5,2.6-4.8,4.1c-2.3-1.2-4.6-2.8-6.8-4.8C628.3,271,627.4,269.7,626.4,268.5 M637.1,277.3c1.7-1.7,3.3-3.1,4.7-4.1
			c0,0,0,0,0,0c2.6,1.5,5.2,2.4,7.9,3c-0.3,1.3-0.6,2.7-0.9,4.1C644.8,280.1,640.9,279.1,637.1,277.3 M652.5,264.5
			c-4.8-0.5-9.3-2.2-13.3-6.1c-4.6-4.5-6.5-10.4-6.8-16.6c-0.5-9.3,3-18,10.6-25.9c4.9-5.1,10.3-8.6,16.3-10.4
			c5-1.5,9.9-1.7,14.8-0.4c4.6,1.2,10,3.1,13.3,6.6c2.9,3,5,6.5,6.1,10.6c1.2,4.2,0.5,8.5-0.6,12.6c-0.4,1.5-0.9,3-1.4,4.4
			c-1.9,4.9-5.2,9.2-8.9,12.8c-3.7,3.6-7.7,7.2-12.4,9.4c-2.5,1.2-5.3,2.2-8.1,2.7c-1.9,0.3-3.8,0.5-5.6,0.6c0.4-2,0.8-4.1,1.2-6.1
			c5.4,1,10.6-0.3,15.6-4.2c4.1-3.2,7.6-7.4,9.8-13.2c3.1-8.3,2.4-14.9-0.1-21.1c-3.2-8.1-13-13.8-21.7-12.2
			c-4.3,0.8-8.4,2.9-11.3,6.2c-2.5,2.8-4.5,6.1-5.9,9.8c-1.7,4.3-2,9.5-2,13.8c0,4.6,0.9,8.5,2.8,11.8c2.2,3.9,5.3,6.6,9.4,8.2
			C653.6,259.8,653.1,262.1,652.5,264.5 M652.6,235.6c0.1,1.5,0.1,2.7,1,3.8c1,1.2,2.1,2.4,3.8,2.9c0.1,0,0.3,0,0.4,0.1
			c-0.5,2.1-1.2,5.1-2.1,8.7c-1.5-0.4-3-1-4.4-2c-3.3-2.3-5-5.7-5.8-9.5c-1.2-5.7,0.1-11.3,3.9-16.9c2.5-3.6,5.5-6.3,9-8
			c2.9-1.4,5.9-2,9-1.7c2.9,0.3,6.4,0.9,8.8,2.7c2.1,1.5,3.7,3.5,4.8,5.9c1.5,3.1,1.1,6.9,0.5,10.6c-0.6,3.4-2.5,6-4.7,9.3
			c-3,4.4-6.6,7.4-10.8,8.9c-2.3,0.8-4.5,1.2-6.7,1.2c0.6-2.9,1.2-5.8,1.8-8.8c0.2,0,0.4,0,0.6,0c1.7-0.1,3.4-0.7,4.9-1.4
			c1.5-0.7,2.7-1.6,3.5-2.7c1-1.3,1.4-2.8,1.4-4.4c-0.2-2.5-1.5-4.4-3.9-5.7c-1.6-0.9-3.5-1.4-5.8-1.3c-3.2,0.2-5.3,1.4-7,3.2
			C653.2,231.9,652.5,233.6,652.6,235.6 M653.3,280.4c0.2-1.2,0.5-2.3,0.7-3.5c4.7,0.3,9.6-0.5,14.6-2.5c-0.7,1.2-1.2,2.5-1.7,3.7
			c-1,0.3-2,0.8-3,1C660.2,279.9,656.7,280.3,653.3,280.4 M667.8,277.8c0.6-1.6,1.3-2.8,1.8-3.8c1.1-0.5,2.1-0.7,3.2-1.3
			c2.4-1.3,4.7-2.9,6.9-4.6c0.3,1.1,0.7,2.1,1.1,3.1C676.7,274.1,672.3,276.3,667.8,277.8 M681.4,270.7c-0.5-1.2-0.8-2.2-1.1-3.1
			c4.2-3.4,7.9-7.5,11.1-12.8c1.4,0.3,3,0.7,4.8,1.4c-1.3,1.6-2.7,3.1-4.1,4.8C688.7,264.8,685.1,267.9,681.4,270.7 M696.7,255.4
			c-1.5-0.6-3.2-1-4.9-1.4c2.8-4.9,4.7-10.2,5.8-15.8c2.5,1.5,5.1,2.7,7.6,3.4C703.3,246.7,700.3,251,696.7,255.4 M595,371.6
			c-0.4-1-0.8-1.9-1.2-2.8c1.3-0.7,2.5-1.5,3.7-2.5c0,0,0,0,0-0.1c1,0.5,2.3,1.2,3.6,2.2C599.2,369.9,597.2,370.9,595,371.6
			 M601.6,368.1c-1.1-0.8-2.3-1.5-3.7-2.1c2.5-2.2,4.1-4.9,5.2-7.9c1.3,1.4,2.8,2.5,4.2,3.3c-0.5,0.9-1,1.9-1.7,2.8
			C604.3,365.7,603,367,601.6,368.1 M607.6,360.9c-2.2-1.2-3.7-2.5-4.4-3.2c0.4-1.2,1-2.2,1.2-3.5c0.4-2.3,0.3-4.7,0-7.2
			c1.1-0.5,3.1-1.2,5.6-1.7c0,0.4,0.2,0.8,0.2,1.2C610.6,351.6,609.9,356.5,607.6,360.9 M609.8,344.7c-1.8,0.3-3.7,1-5.5,1.9
			c-0.3-1.8-0.6-3.7-1.3-5.6c-0.6-1.6-1.3-3.3-2.1-5c0.3-0.4,1.8-2.3,4.1-4.3C607.6,335.8,609.2,340.1,609.8,344.7 M604.7,331.3
			c-1.4,1.2-2.8,2.6-3.9,4.4c-1.3-2.9-2.8-5.7-4.8-8c-0.5-0.5-1-1-1.5-1.5c0.4-0.9,1-2.4,1.9-3.9C599.8,325,602.5,328,604.7,331.3
			 M596,321.8c-0.7,1.2-1.4,2.5-1.8,4c-0.5-0.5-0.9-1-1.5-1.5c-1.9-1.8-3.9-3.2-6.1-4.3c0.8-0.9,1.6-1.8,2.2-2.8
			C591.2,318.4,593.6,319.9,596,321.8 M588.2,316.9c-0.7,1.2-1.4,2.1-2,2.8c-2.3-1.2-4.9-2-7.6-2.4c-0.3-0.7-0.9-1.9-1.4-3.6
			c0.4,0.1,0.8,0,1.3,0C581.9,314.3,585.1,315.4,588.2,316.9 M578.2,317.2c-0.2,0-0.3-0.1-0.4-0.1c-4.2-0.5-8.3,0.5-11.9,2.7
			c0,0-0.1,0.1-0.1,0.1c-0.7-0.8-1.8-2.3-2.9-4.2c0.3-0.1,0.6-0.3,0.8-0.4c4.1-1.7,8.5-2.1,13-1.7
			C577.1,314.8,577.5,316,578.2,317.2 M562.3,315.9c0.8,1.4,1.9,2.9,3.2,4.2c-1.6,1-3,2.2-4.3,3.5c-1.6,1.6-2.9,3.5-4,5.4
			c-1.5-0.9-3.9-2.5-6.1-4.9c0.1-0.2,0.2-0.4,0.3-0.5C553.9,320.2,558.2,317.7,562.3,315.9 M550.7,324.8c1.7,1.7,3.8,3.3,6.3,4.6
			c-0.5,1-1.1,1.9-1.4,2.9c-0.6,1.8-0.9,3.6-1.1,5.4c0,0.4,0,0.8,0,1.2c-2.5-1.9-5.3-3.2-7.8-3.9
			C547.2,331.3,548.6,327.9,550.7,324.8 M546.6,335.8c3.6,1.1,6.4,2.8,7.8,3.7c0,0.4,0,0.8,0,1.2c0,2.9,0.7,5.8,1.7,8.5
			c-1.1,0.8-2.8,2-4.9,3c-0.1-0.1-0.2-0.3-0.3-0.4C548.3,346.6,546.1,341.2,546.6,335.8 M551.5,352.8c1.6-0.8,3.2-1.8,4.7-3.1
			c1.4,3.6,3.3,7,5.8,9.9c-1.1,0.4-2.1,0.9-3.1,1.4C556,358.5,553.4,356,551.5,352.8 M559.4,361.4c1.1-0.6,2.1-1.1,2.9-1.4
			c2.7,3.2,5.8,5.5,8.9,7.2c-0.1,0.7-0.2,1.4-0.4,2.2c-2.8-1.4-5.5-3-8.2-5.2C561.4,363.2,560.4,362.3,559.4,361.4 M571.3,369.6
			c0.2-0.7,0.3-1.5,0.3-2.2c1.7,0.9,3.4,1.7,5.2,2.3c0.8,0.3,1.5,0.2,2.2,0.4c0.5,0.6,1,1.4,1.7,2.3
			C577.5,371.9,574.4,371.1,571.3,369.6 M581.4,372.5c-0.5-0.8-1.1-1.6-1.7-2.3c3.7,0.8,7.3,1,10.5,0.1c0.3,0.7,0.6,1.5,0.9,2.2
			c-2.4,0.4-4.9,0.5-7.5,0.4C582.9,372.9,582.1,372.6,581.4,372.5 M587,362.4c-1.3,0.2-2.6,0.3-4,0.3c-1.9,0-3.9-0.3-5.7-0.8
			c-3.4-0.9-6.5-2.8-9.4-4.8c-2.9-2-5.6-4.5-7.5-7.5c-0.5-0.9-1-1.8-1.5-2.8c-1.2-2.6-2.2-5.4-1.9-8.3c0.3-2.9,1.2-5.5,2.8-7.8
			c1.8-2.7,5.1-4.6,8.1-6c3.1-1.5,6.4-2,9.9-1.5c4.2,0.5,8.3,2.2,12.1,5c6,4.4,9.4,9.7,10.2,16c0.5,4.2,0,8.3-2.5,11.9
			c-1.9,2.7-4.3,4.4-6.9,5.4c-0.8-1.7-1.5-3.3-2.1-4.7c2-1.5,3.4-3.5,4.3-5.9c0.8-2.4,1-5.2,0.4-8.2c-0.5-2.9-1.4-6.3-3-8.9
			c-1.4-2.3-3.1-4.3-5.1-5.8c-2.3-1.8-5.3-2.8-8.3-2.8c-6,0-11.8,5-13,10.8c-0.9,4.5-0.6,8.9,2.5,14.1c2.2,3.6,5,6,8.1,7.6
			c3.9,2,7.6,2.3,11.1,0.9C585.9,359.8,586.5,361.1,587,362.4 M573.1,344c0.4,3.1,3.7,5.2,7.3,4.8c0.3,0,0.6-0.1,0.9-0.2
			c0.8,1.8,1.5,3.6,2.2,5.3c-1.5,0.3-3,0.2-4.7,0c-3-0.5-5.7-2-8.3-4.6c-1.9-1.9-3.5-3.5-4.3-5.6c-0.9-2.4-1.6-4.9-1-7.1
			c0.4-1.7,1.3-3.2,2.5-4.5c1.4-1.5,3.6-2.3,5.5-2.9c2-0.6,4.1-0.6,6.2,0c2.5,0.7,4.8,2.1,6.9,4.3c3.2,3.3,4.8,6.9,4.6,10.8
			c-0.1,2.6-0.8,5.1-2.7,7c-0.5,0.6-1.1,1-1.7,1.4c-1-2.3-1.8-4.1-2.5-5.5c1.5-1.2,2.4-3,2.1-4.9c-0.4-3.1-3.7-5.2-7.3-4.8
			C575.3,338.1,572.7,341,573.1,344 M717,239.5c0.1-1.6,0.6-4.4,5-8.2c0,0-3.9,1.6-5.6,3.9c0.1-0.7,0.1-1.4,0.2-2.1
			c0.2-1,0.2-1.3,0.6-2.9c0.2-0.9,0.3-1.5,0.6-2.8c0,0-5.3,5.9-3,14.5c-2,0.1-4-0.1-5.9-0.4c3.1-9.1,5.6-18.6,3.1-27.1
			c-1.8-6.6-5.1-12.3-9.9-17.1c-5.3-5.5-13.8-8.6-21.1-10.5c0.6-2.8,0.9-5.3,1-6.5l0,0c1.7,0.6,6.1,1.6,10.2-2.1c0,0-4.5,1.2-7.3,1
			c5.7-2.5,7.7-5.7,7.7-5.7c-1,0.7-1.8,1.1-2.5,1.5c-1.2,0.6-2.4,1.1-3.6,1.6c0,0-0.1,0-0.1,0c1.4-2.6,1.1-6.7,1.1-6.7
			c-1.1,5.1-4.1,7.3-5.4,8.1c0,0,0,0,0,0c1.2-2.5-1.7-8.7-1.7-8.7c-1.7,3.9-0.8,7.4-0.2,9c-1.4-1.1-3.7-3.4-5.2-7.5
			c0,0,0.2,5.3,3.6,7.8c-1.5-0.1-4.1-0.7-7.5-4.9c0,0,1.3,3.7,3.5,5.4c-0.6-0.1-1.3-0.2-1.9-0.3c-0.9-0.2-1.2-0.3-2.7-0.6
			c-0.9-0.2-1.4-0.4-2.6-0.7c0,0,5.4,5.2,13.5,3.2c0.1,2.1-0.2,4.1-0.6,6c-7.2-1.8-14.4-1.7-21.7,0.3c-0.1-2.5-0.4-4.6-0.7-5.7l0,0
			c1.5,0.1,5.4,0,7.9-4c0,0-3.5,2-5.8,2.5c4.2-3.3,5.1-6.5,5.1-6.5c-0.7,0.8-1.2,1.3-1.7,1.8c-0.8,0.7-1.7,1.4-2.6,2.1
			c0,0-0.1,0-0.1,0.1c0.6-2.4-0.6-5.8-0.6-5.8c0.2,4.4-1.7,7-2.7,8c0,0,0,0,0,0c0.4-2.3-3.4-6.9-3.4-6.9c-0.6,3.6,1,6.3,1.8,7.5
			c-1.4-0.6-3.8-2-6-5.1c0,0,1.4,4.4,4.8,5.7c-1.3,0.2-3.6,0.4-7.4-2.4c0,0,2,2.8,4.1,3.6c-0.6,0.1-1.1,0.2-1.7,0.2
			c-0.8,0.1-1.1,0.1-2.4,0.1c-0.8,0-1.2,0-2.4,0c0,0,5.6,3.1,11.9-0.4c0.5,1.8,0.8,3.6,0.9,5.3c-0.3,0.1-0.6,0.1-0.9,0.2
			c-6,1.8-11.6,4.8-16.9,8.6c-1-1.5-1.9-3.1-2.5-4.9c7.7-0.7,10.9-6.4,10.9-6.4c-1,0.6-1.4,0.9-2.1,1.3c-1.2,0.7-1.4,0.9-2.2,1.3
			c-0.5,0.3-1.1,0.5-1.6,0.8c1.4-1.9,1.5-5.3,1.5-5.3c-1.7,4.4-3.9,5.6-5.2,6.1c2.3-3,0.8-7.4,0.8-7.4c-0.1,3.8-1.4,6.3-2.3,7.6
			c0.1-1.5-0.2-4.6-2.9-7.3c0,0-0.7,5.9,1.1,7.6c0,0,0,0,0,0c-1.5-0.3-4.8-1.3-7.3-5.1c0,0,1,3.5,3.1,5.2c0,0-0.1,0-0.1,0
			c-1.2,0-2.4-0.1-3.6-0.3c-0.8-0.1-1.6-0.3-2.7-0.5c0,0,2.7,2.1,8.6,2.5c-2.4,0.9-6.7,1.2-6.7,1.2c4.7,1.9,8.3-0.2,9.6-1.1l0,0
			c0.5,1.1,1.5,3.1,3.1,5.3c-3,2.3-6,4.7-8.8,7.7c-0.3,0.4-0.6,0.7-1,1.1c-1.9-1.7-3.8-2.9-4.7-3.5l0,0c1.3-1,4.2-4.1,3-8.9
			c0,0-1.1,4.1-2.5,6.2c0.7-5.6-1.1-8.6-1.1-8.6c0.1,1.1,0.1,1.9,0.1,2.6c-0.1,1.2-0.2,2.4-0.4,3.5c0,0,0,0.1,0,0.1
			c-1.5-2.2-5-3.9-5-3.9c3.7,3.1,4.1,6.5,4.2,7.9c0,0,0,0,0,0c-1.5-2-8-2.5-8-2.5c2.4,3.1,5.7,3.9,7.3,4.2c-1.6,0.6-4.5,1.4-8.6,0.7
			c0,0,4.5,2.2,8.1,0.6c-0.8,1.1-2.5,2.9-7.6,3.7c0,0,3.7,0.6,6.1-0.4c-0.4,0.5-0.7,1-1.1,1.4c-0.6,0.7-0.8,0.8-1.8,1.9
			c-0.6,0.6-1,0.9-1.8,1.8c0,0,6.8-2,9-9.2c1.7,0.8,3.1,1.9,4.5,3c-4.7,5.2-8.3,10.7-10.9,16.3c-2.1-0.9-4.1-1.5-5.1-1.7l0,0
			c0.9-1.5,2.6-5.5-0.2-10.1c0,0,0.3,4.6-0.3,7.1c-1.3-5.9-4.1-8.4-4.1-8.4c0.4,1.1,0.8,1.9,1,2.7c0.3,1.2,0.6,2.5,0.8,3.7
			c0,0,0,0.1,0,0.1c-2.2-1.8-6.2-2.3-6.2-2.3c4.6,2,6.3,5.2,6.8,6.7c0,0,0,0,0,0c-2.2-1.6-8.7,0.1-8.7,0.1c3.4,2.3,6.9,2.1,8.5,1.8
			c-1.3,1.2-3.9,2.9-8.1,3.6c0,0,5.1,0.8,8.2-2c-0.4,1.4-1.4,3.8-6.1,6.3c0,0,3.8-0.6,5.8-2.4c-0.2,0.6-0.4,1.2-0.6,1.8
			c-0.3,0.9-0.5,1.1-1.1,2.5c-0.4,0.8-0.6,1.3-1.1,2.4c0,0,5.9-4.2,5.5-12.3c1.6,0.2,3.1,0.7,4.6,1.3c-3.1,7.2-4.6,14.6-4.2,22.4
			c-1.8,0.2-3.3,0.5-4.2,0.7l0,0c0.1-1.7-0.2-6-4.7-8.8c0,0,2.4,3.8,3,6.4c-3.8-4.6-7.4-5.5-7.4-5.5c0.9,0.8,1.5,1.3,2.1,1.9
			c0.9,0.9,1.7,1.9,2.4,2.9c0,0,0,0.1,0.1,0.1c-2.7-0.6-6.5,0.8-6.5,0.8c5-0.4,7.9,1.7,9,2.8c0,0,0,0,0,0c-2.6-0.4-7.6,4-7.6,4
			c4,0.5,7-1.3,8.3-2.3c-0.6,1.6-2.1,4.3-5.5,6.9c0,0,4.9-1.7,6.2-5.5c0.3,1.4,0.5,4-2.4,8.3c0,0,3.1-2.3,4-4.7
			c0.1,0.6,0.2,1.3,0.3,1.9c0.1,0.9,0.1,1.2,0.2,2.7c0,0.8,0,1.4,0.1,2.6c0,0,3.3-6.4-0.7-13.3c1.2-0.4,2.3-0.7,3.5-0.9
			c0.5,9,3.2,17.3,9,24.1c-1.1,0.6-2.2,1.2-3.3,1.6c-1.1-7.3-7.1-10-7.1-10c0.7,0.9,1,1.3,1.4,1.9c0.8,1.1,1,1.3,1.4,2
			c0.3,0.5,0.6,1,0.9,1.5c-2.1-1.2-5.5-1.1-5.5-1.1c4.6,1.4,5.9,3.3,6.5,4.5c-3.2-2-7.6-0.4-7.6-0.4c3.9-0.1,6.5,1,7.9,1.8
			c-1.5,0-4.7,0.5-7.3,3.2c0,0,6.1,0.3,7.7-1.5c0,0,0,0,0,0c-0.2,1.4-1.1,4.6-4.8,7.1c0,0,3.5-1.2,5.1-3.2c0,0,0,0.1,0,0.1
			c0,1.1,0,2.3-0.1,3.4c-0.1,0.7-0.2,1.5-0.4,2.5c0,0,2-2.7,2.1-8.2c1,2.2,1.6,6.3,1.6,6.3c1.7-4.6-0.6-7.8-1.6-9v0
			c0.8-0.4,2.2-1.2,3.8-2.1c0.5,0.6,0.9,1.2,1.5,1.8c3.1,3,6.3,5.2,9.6,6.8c-1.2,1.6-2.2,3.1-2.7,3.9l0,0c-1.1-1.2-4.3-3.8-9.1-2.4
			c0,0,4.2,0.8,6.4,2.1c-5.7-0.3-8.6,1.6-8.6,1.6c1.1-0.1,1.9-0.2,2.7-0.2c1.2,0,2.4,0.1,3.6,0.2c0,0,0.1,0,0.1,0
			c-2.2,1.5-3.7,5-3.7,5c2.9-3.7,6.3-4.3,7.7-4.4c0,0,0,0,0,0c-2,1.5-2.1,7.8-2.1,7.8c3-2.5,3.7-5.7,3.8-7.2
			c0.7,1.5,1.6,4.2,1.2,8.3c0,0,2-4.4,0.2-7.9c1.2,0.7,3.1,2.2,4.2,7.1c0,0,0.4-3.6-0.7-5.8c0.5,0.3,1,0.7,1.5,1
			c0.7,0.5,0.9,0.7,2,1.6c0.6,0.5,1,0.9,1.9,1.6c0,0-2.3-6.4-9.7-8.1c0.6-1.4,1.4-2.6,2.3-3.8c4.2,1.9,8.7,2.8,13.4,3.1
			c-8.4,38.1-19.7,97.7-24.7,167.2c-9.5-31.9-19.9-58.3-27.8-76.8c2.6-0.7,5-1.8,7.3-3.4c0.7,0.7,1.4,1.4,1.9,2.2
			c-4.7,2-5.5,6.6-5.5,6.6c0.5-0.6,0.7-0.9,1.1-1.3c0.6-0.7,0.7-0.9,1.1-1.3c0.3-0.3,0.6-0.6,0.9-0.9c-0.5,1.6,0.2,4,0.2,4
			c0.1-3.4,1.2-4.6,1.9-5.2c-0.8,2.5,1.1,5.2,1.1,5.2c-0.8-2.6-0.5-4.6-0.2-5.6c0.3,1,1.1,3.1,3.4,4.4c0,0-0.9-4.2-2.4-5
			c0,0,0,0,0,0c1-0.1,3.3-0.1,5.7,2c0,0-1.4-2.2-3-2.9c0,0,0,0,0.1,0c0.8-0.2,1.6-0.4,2.4-0.5c0.5-0.1,1-0.1,1.8-0.2
			c0,0-2.2-0.9-5.9,0c1.3-1.1,4-2.2,4-2.2c-3.4-0.3-5.2,1.8-5.8,2.7h0c-0.4-0.5-1.3-1.4-2.3-2.3c2-1.5,3.9-3.3,5.6-5.7
			c0.3-0.4,0.5-0.9,0.8-1.4c1.2,0.5,2.2,0.8,2.8,1v0c-0.5,0.9-1.7,3.3,0,6.2c0,0-0.2-2.8,0.3-4.4c0.7,3.6,2.4,5.2,2.4,5.2
			c-0.3-0.7-0.4-1.2-0.6-1.6c-0.2-0.8-0.3-1.5-0.5-2.3c0,0,0,0,0-0.1c1.3,1.1,3.8,1.5,3.8,1.5c-2.8-1.3-3.8-3.3-4.1-4.2c0,0,0,0,0,0
			c1.3,1,5.3,0.1,5.3,0.1c-2-1.5-4.2-1.4-5.2-1.2c0.8-0.7,2.4-1.7,5-2.1c0,0-3.1-0.5-5,1.1c0.3-0.9,0.9-2.3,3.8-3.8
			c0,0-2.3,0.3-3.6,1.4c0.1-0.4,0.3-0.7,0.4-1.1c0.2-0.5,0.3-0.7,0.7-1.5c0.2-0.5,0.4-0.8,0.7-1.5c0,0-3.7,2.5-3.6,7.5
			c-0.9-0.1-1.6-0.5-2.4-0.8c3-5.2,3.7-11,3-16.9c0.8,0,1.6-0.1,2.4,0c-1.8,5.1,1.1,9,1.1,9c-0.1-0.8-0.2-1.2-0.3-1.8
			c-0.1-1-0.2-1.2-0.2-1.8c0-0.4,0-0.9,0-1.3c0.9,1.5,3.2,2.7,3.2,2.7c-2.5-2.5-2.7-4.3-2.6-5.2c1.4,2.4,4.8,2.9,4.8,2.9
			c-2.6-1.3-3.9-2.9-4.5-3.9c1,0.5,3.2,1.3,5.8,0.5c0,0-3.8-2.3-5.5-1.8c0,0,0,0,0,0c0.6-0.8,2.3-2.6,5.7-2.9c0,0-2.7-0.5-4.4,0.2
			c0,0,0,0,0-0.1c0.4-0.8,0.8-1.5,1.3-2.2c0.3-0.5,0.7-0.9,1.2-1.5c0,0-2.3,1-4.3,4.6c0.1-1.8,1.2-4.6,1.2-4.6
			c-2.7,2.4-2.4,5.3-2.1,6.4l0,0c-0.6,0-1.7,0-2.9,0c-0.7-5.2-2.6-9.9-5.5-14.3c0.9-0.5,1.8-1.1,2.9-1.5c0.7,5.4,5.2,7.6,5.2,7.6
			c-0.5-0.7-0.7-1-1.1-1.5c-0.6-0.8-0.7-1-1-1.5c-0.2-0.4-0.4-0.7-0.6-1.1c1.5,1,4.1,0.9,4.1,0.9c-3.4-1.1-4.4-2.6-4.8-3.5
			c2.3,1.5,5.7,0.4,5.7,0.4c-2.9,0-4.8-0.8-5.8-1.4c1.1,0,3.5-0.3,5.5-2.3c0,0-4.5-0.3-5.8,1c0,0,0,0,0,0c0.2-1,0.9-3.4,3.7-5.3
			c0,0-2.6,0.8-3.9,2.3c0,0,0-0.1,0-0.1c0-0.9,0-1.7,0.1-2.6c0.1-0.6,0.2-1.1,0.3-1.9c0,0-1.5,2-1.7,6.1c-0.7-1.6-1.1-4.7-1.1-4.7
			c-1.3,3.4,0.3,5.9,1.1,6.7l0,0c-0.7,0.3-1.9,1-3.3,1.8c-2.4-3.4-5.5-6.6-9.2-9.5c0.8-0.9,1.6-1.8,2.7-2.6c2.3,4.6,7.1,5,7.1,5
			c-0.7-0.5-1-0.7-1.4-1c-0.8-0.5-0.9-0.7-1.4-1c-0.3-0.2-0.6-0.5-0.9-0.8c1.7,0.4,4.1-0.5,4.1-0.5c-3.5,0.1-4.8-0.9-5.5-1.6
			c2.6,0.6,5.4-1.4,5.4-1.4c-2.7,0.9-4.7,0.8-5.8,0.5c1.1-0.3,3.1-1.3,4.4-3.7c0,0-4.3,1.1-5,2.6c0,0,0,0,0,0
			c-0.2-1-0.2-3.3,1.8-5.8c0,0-2.2,1.5-2.9,3.2c0,0,0,0,0-0.1c-0.3-0.8-0.5-1.5-0.7-2.3c-0.1-0.5-0.2-1-0.3-1.8c0,0-0.8,2.2,0.3,5.9
			c-1.2-1.2-2.4-3.8-2.4-3.8c-0.2,3.4,2.1,5.1,3.1,5.6l0,0c-0.6,0.5-1.6,1.6-2.8,3c-0.3-0.2-0.5-0.4-0.8-0.6
			c-2.2-1.6-4.5-2.9-6.8-4.1c0.8-1.7,1.2-3.2,1.4-3.9l0,0c1,0.5,3.6,1.4,6.5-0.4c0,0-2.9,0.3-4.6,0c3.8-1,5.4-2.7,5.4-2.7
			c-0.7,0.3-1.2,0.5-1.7,0.7c-0.8,0.2-1.6,0.4-2.4,0.6c0,0,0,0-0.1,0c1.1-1.4,1.4-3.8,1.4-3.8c-1.2,2.9-3.3,3.9-4.2,4.3c0,0,0,0,0,0
			c1-1.3-0.2-5.2-0.2-5.2c-1.5,2.1-1.3,4.2-1.1,5.2c-0.8-0.7-1.9-2.2-2.4-4.8c0,0-0.4,3.1,1.4,4.8c-0.9-0.2-2.5-0.7-4.2-3.5
			c0,0,0.5,2.3,1.6,3.4c-0.4-0.1-0.8-0.2-1.2-0.3c-0.6-0.2-0.7-0.2-1.6-0.6c-0.5-0.2-0.8-0.3-1.6-0.6c0,0,2.8,3.4,8.1,3
			c-0.2,1.3-0.6,2.4-1.1,3.6c-4-1.9-8.1-3.2-12.3-3.7c-0.2,0-0.4,0-0.6,0c-0.2-1.2-0.2-2.4-0.1-3.6c4.6,1.5,8-1.2,8-1.2
			c-0.7,0.1-1.1,0.2-1.6,0.3c-0.9,0.1-1.1,0.2-1.6,0.2c-0.4,0-0.8,0.1-1.1,0.1c1.3-0.8,2.3-2.9,2.3-2.9c-2.2,2.3-3.7,2.5-4.6,2.5
			c2.1-1.3,2.5-4.4,2.5-4.4c-1.1,2.3-2.5,3.5-3.4,4.1c0.4-0.9,1.1-2.9,0.3-5.2c0,0-2,3.5-1.4,5c0,0,0,0,0,0c-0.8-0.5-2.4-2-2.7-5
			c0,0-0.4,2.4,0.3,4c0,0,0,0-0.1,0c-0.7-0.3-1.4-0.7-2-1.1c-0.4-0.3-0.8-0.6-1.4-1c0,0,1,2,4.2,3.7c-1.6,0-4.2-1-4.2-1
			c2.2,2.4,4.8,2,5.8,1.7l0,0c0,0.7,0,2.2,0.2,3.9c-5.1-0.4-9.9,0.4-14.4,2.4c-0.5-1.2-1-2.5-1.2-3.9c5.6,0.3,8.6-3.8,8.6-3.8
			c-0.8,0.4-1.1,0.5-1.7,0.8c-1,0.4-1.1,0.5-1.7,0.7c-0.4,0.2-0.8,0.3-1.3,0.4c1.3-1.4,1.7-4,1.7-4c-1.8,3.2-3.5,3.9-4.4,4.2
			c2-2.1,1.5-5.7,1.5-5.7c-0.5,2.9-1.8,4.7-2.6,5.6c0.2-1.1,0.4-3.6-1.2-6c0,0-1.2,4.5-0.1,6c0,0,0,0,0,0c-1-0.4-3.3-1.5-4.6-4.8
			c0,0,0.3,2.8,1.6,4.4c0,0,0,0-0.1,0c-0.9-0.2-1.7-0.4-2.6-0.6c-0.6-0.2-1.1-0.4-1.9-0.7c0,0,1.7,1.9,5.8,2.9c-1.8,0.4-5,0.2-5,0.2
			c3.2,2,6,0.8,7,0.2l0,0c0.2,0.8,0.7,2.4,1.4,4.2c-4.3,2-8.9,4.8-11.9,8.5c-0.7-1-1.4-2-2-3.1c6.7-1.8,8.6-7.8,8.6-7.8
			c-0.8,0.7-1.1,1.1-1.7,1.6c-1,0.9-1.1,1-1.8,1.6c-0.4,0.3-0.9,0.7-1.3,1c0.9-2.1,0.5-5.3,0.5-5.3c-0.8,4.5-2.5,5.9-3.6,6.6
			c1.5-3.2-0.5-7.2-0.5-7.2c0.5,3.7-0.2,6.2-0.8,7.6c-0.2-1.4-0.9-4.4-3.7-6.5c0,0,0.3,5.8,2.2,7.1c0,0,0,0,0,0
			c-1.3,0-4.4-0.5-7.3-3.8c0,0,1.5,3.2,3.5,4.5c0,0-0.1,0-0.1,0c-1.1,0.1-2.2,0.2-3.3,0.3c-0.7,0-1.4,0-2.4-0.1c0,0,2.8,1.6,8,1.1
			c-1.9,1.2-5.8,2.1-5.8,2.1c4.5,1.1,7.3-1.4,8.3-2.5l0,0c0.5,0.7,1.4,2,2.5,3.5c-0.1,0.2-0.3,0.3-0.4,0.5
			c-2.3,3.4-3.7,7.2-4.3,11.4c-1.4-0.3-2.7-0.5-3.5-0.6l0,0c0.5-1.3,1.5-4.9-1.4-8.4c0,0,0.8,3.8,0.6,6c-1.8-4.8-4.5-6.5-4.5-6.5
			c0.5,0.9,0.9,1.5,1.2,2.1c0.4,1,0.8,2,1.2,3c0,0,0,0.1,0,0.1c-2.1-1.2-5.5-1.2-5.5-1.2c4.1,1.1,5.9,3.6,6.5,4.7c0,0,0,0,0,0
			c-2-1.1-7.2,1.1-7.2,1.1c3.1,1.5,6,0.9,7.4,0.5c-0.9,1.1-2.9,2.9-6.3,4c0,0,4.4,0,6.6-2.7c-0.2,1.2-0.7,3.4-4.3,6
			c0,0,3.1-1,4.5-2.7c-0.1,0.5-0.2,1.1-0.3,1.6c-0.2,0.8-0.3,1-0.6,2.2c-0.2,0.7-0.3,1.1-0.7,2.2c0,0,4.4-4.3,3.1-11
			c1,0,2,0.1,3,0.3c0,0.1-0.1,0.3-0.1,0.4c-0.6,6,2.1,12,5.3,17.7c-1.2,0.4-2.5,0.9-3.9,1c0.5-6-3.7-9.3-3.7-9.3
			c0.4,0.9,0.5,1.2,0.8,1.8c0.4,1,0.5,1.2,0.7,1.9c0.2,0.4,0.3,0.9,0.4,1.3c-1.4-1.4-4.2-1.9-4.2-1.9c3.4,2,4,3.8,4.3,4.9
			c-2.1-2.2-6-1.8-6-1.8c3.1,0.7,5,2,5.9,2.9c-1.2-0.3-3.8-0.5-6.4,1.1c0,0,4.8,1.4,6.4,0.3c0,0,0,0,0,0c-0.4,1.1-1.7,3.4-5.2,4.7
			c0,0,3-0.3,4.7-1.5c0,0,0,0.1,0,0.1c-0.2,0.9-0.4,1.8-0.7,2.7c-0.2,0.6-0.4,1.1-0.8,1.9c0,0,2.1-1.8,3.3-6.1c0.4,1.9,0,5.3,0,5.3
			c2.2-3.3,1-6.3,0.4-7.4l0,0c0.9-0.2,2.5-0.6,4.4-1.3c2,3.3,4.6,5.8,7.8,8.3c-1.7,1.2-3,2.5-3.6,3.2l0,0c-0.6-1-2.3-3.3-5.9-3.2
			c0,0,2.7,1.3,4,2.5c-3.9-1.2-6.2-0.4-6.2-0.4c0.8,0.1,1.3,0.2,1.9,0.3c0.8,0.2,1.6,0.4,2.4,0.7c0,0,0,0,0.1,0
			c-1.8,0.7-3.4,2.8-3.4,2.8c2.6-2,5.1-1.9,6.1-1.7c0,0,0,0,0,0c-1.6,0.7-2.8,5-2.8,5c2.5-1.2,3.5-3.3,3.8-4.3
			c0.2,1.1,0.4,3.2-0.6,5.9c0,0,2.1-2.7,1.5-5.4c0.7,0.7,1.8,2,1.7,5.6c0,0,0.9-2.4,0.5-4.1c0.3,0.3,0.6,0.6,0.8,0.9
			c0.4,0.5,0.5,0.6,1.1,1.4c0.3,0.5,0.5,0.8,1,1.4c0,0-0.5-4.8-5.3-7.2c1-1.2,2.1-2.3,3.3-3.1c1.5,1.2,3.1,2.4,4.8,3.7
			c2.7,1.9,5.3,3.4,8,4.7c-0.5,1.5-1.1,3-2.1,4.5c-3.3-3.5-7.5-2.8-7.5-2.8c0.7,0.2,1,0.3,1.5,0.5c0.8,0.3,1,0.4,1.5,0.6
			c0.3,0.1,0.7,0.3,1,0.5c-1.6,0.1-3.4,1.4-3.4,1.4c3-0.9,4.4-0.3,5.2,0.1c-2.5,0.1-4.3,2.6-4.3,2.6c2.1-1.5,3.9-1.9,4.9-1.9
			c-0.8,0.6-2.4,2-2.8,4.4c0,0,3.4-2,3.7-3.6c0,0,0,0,0,0c0.4,0.8,1.1,2.9,0,5.7c0,0,1.5-1.9,1.6-3.6c0,0,0,0,0,0
			c0.4,0.6,0.8,1.3,1.2,1.9c0.2,0.4,0.4,0.9,0.7,1.5c0,0,0.1-2.2-1.8-5.2c1.4,0.8,3.1,2.9,3.1,2.9c-0.8-3.1-3.2-4-4.2-4.3l0,0
			c0.5-0.8,1.4-2.6,2.1-4.8c3.6,1.6,7.1,2.5,10.7,3c0.7,1.5,1.4,3,1.7,4.9c-5-0.3-7.6,3.3-7.6,3.3c0.7-0.3,1-0.5,1.5-0.7
			c0.8-0.4,1-0.5,1.5-0.7c0.4-0.1,0.7-0.3,1.1-0.4c-1.1,1.2-1.5,3.5-1.5,3.5c1.6-2.9,3.1-3.4,3.9-3.7c-1.8,1.8-1.3,5-1.3,5
			c0.5-2.6,1.6-4.2,2.3-5c-0.2,1-0.4,3.2,1.1,5.3c0,0,1.1-4,0.1-5.3c0,0,0,0,0,0c0.9,0.3,2.9,1.4,4.1,4.2c0,0-0.3-2.5-1.4-3.8
			c0,0,0,0,0.1,0c0.8,0.2,1.5,0.3,2.3,0.5c0.5,0.1,1,0.3,1.6,0.6c0,0-1.5-1.7-5.1-2.6c1.6-0.4,4.4-0.1,4.4-0.1
			c-2.8-1.8-5.3-0.7-6.2-0.2l0,0c-0.2-0.9-0.8-2.8-1.8-4.9c1.1,0.1,2.2,0.4,3.2,0.4c2.1,0,4.1-0.1,6.1-0.4
			c13.9,35.1,23.7,65.2,30.8,90.7c-2,33.8-2.5,69.7-0.4,106.3l4.6,0.2c0,0-3.3-30.4,0.1-90.2c13.8,54.3,13.7,82.2,13.7,82.2l5.8-0.8
			c-3.7-35.2-10.6-68-18.5-97c3.3-46.1,10.4-107.1,24.9-182.7c2.8-0.1,5.6-0.4,8.5-0.9c1.5-0.3,3-0.8,4.5-1.3
			c-0.9,3.2-1.2,6-1.2,7.3l0,0c-1.5-0.5-5.4-1.4-9,1.9c0,0,4-1.1,6.4-0.9c-5.1,2.2-6.8,5.1-6.8,5.1c0.9-0.6,1.5-1,2.2-1.3
			c1-0.5,2.1-1,3.2-1.4c0,0,0.1,0,0.1,0c-1.2,2.3-1,5.9-1,5.9c0.9-4.5,3.6-6.5,4.8-7.2c0,0,0,0,0,0c-1,2.2,1.5,7.7,1.5,7.7
			c1.5-3.4,0.7-6.5,0.2-7.9c1.2,1,3.3,3,4.6,6.6c0,0-0.2-4.7-3.2-6.9c1.3,0.1,3.6,0.6,6.7,4.3c0,0-1.2-3.3-3.1-4.7
			c0.6,0.1,1.2,0.1,1.7,0.2c0.8,0.2,1.1,0.2,2.4,0.6c0.8,0.2,1.2,0.3,2.3,0.6c0,0-4.8-4.5-11.9-2.8c-0.1-2.6,0.4-5,1-7.3
			c5.2-1.6,10.2-4.1,15-7.4c1.6,3.1,3.4,5.4,4.3,6.5l0,0c-1.4,0.6-4.7,2.6-5,7.3c0,0,2-3.4,3.8-5c-2,4.9-1.3,8.1-1.3,8.1
			c0.2-1,0.4-1.7,0.6-2.4c0.4-1,0.8-2.1,1.3-3.1c0,0,0-0.1,0-0.1c0.7,2.4,3.3,4.8,3.3,4.8c-2.3-3.7-1.9-6.9-1.5-8.2c0,0,0,0,0,0
			c0.8,2.2,6.3,4.3,6.3,4.3c-1.2-3.4-3.9-5-5.2-5.6c1.5-0.2,4.3-0.1,7.7,1.5c0,0-3.3-3.2-6.9-2.6c1-0.8,2.9-2,7.6-1.5
			c0,0-3-1.5-5.3-1.2c0.4-0.3,0.9-0.7,1.4-1c0.7-0.4,0.9-0.6,2-1.2c0.6-0.4,1.1-0.6,2-1.1c0,0-6.4,0.1-10.2,6.1
			c-1.9-1.8-3.2-3.9-4.3-5.9c3.6-2.6,7.1-5.4,10.5-9c2.2-2.3,4.2-4.4,6.1-6.6c1.9,0.9,3.9,2.1,5.6,3.7c-6.3,4.8-5.8,11.9-5.8,11.9
			c0.5-1.1,0.7-1.6,1.1-2.4c0.6-1.3,0.8-1.6,1.2-2.4c0.3-0.5,0.6-1.1,1-1.6c-0.1,2.6,1.8,5.8,1.8,5.8c-1-5.1,0.2-7.3,1-8.5
			c-0.2,4,3.6,7.4,3.6,7.4c-2.1-3.6-2.4-6.7-2.3-8.4c0.8,1.4,2.8,4.2,6.7,5.3c0,0-2.8-5.9-5.4-6.6c0,0,0,0,0,0
			c1.4-0.5,4.9-1.3,9.3,1c0,0-2.9-2.7-5.6-3.3c0,0,0.1,0,0.1-0.1c1.1-0.6,2.2-1.2,3.3-1.7c0.7-0.3,1.5-0.6,2.6-0.9
			c0,0-3.6-0.5-8.9,2.2c1.5-2.1,5.2-4.7,5.2-4.7c-5.2,0.7-7.1,4.6-7.7,6.2l0,0c-1.1-0.8-3.3-2.3-6.1-3.6c3.9-4.4,7.1-8.8,9.1-14.1
			c2.9,0.6,5.4,0.7,6.7,0.7l0,0c-0.6,1.8-1.5,6.5,2.6,10.7c0,0-1.5-4.8-1.4-7.7c2.8,6,6.4,8,6.4,8c-0.7-1.1-1.3-1.8-1.7-2.6
			c-0.7-1.2-1.2-2.5-1.8-3.8c0,0,0-0.1,0-0.1c2.8,1.4,7.2,1,7.2,1c-5.4-1-7.9-4.1-8.8-5.5c0,0,0,0,0-0.1c2.7,1.2,9.2-2.1,9.2-2.1
			c-4.2-1.7-7.8-0.6-9.5,0.1c1.1-1.5,3.4-4,7.8-5.8C725.3,235.4,719.6,235.7,717,239.5 M762.2,188.1c-5.7,0-9.5-1.8-11.4-3.1
			c2.2,0,6.9-0.4,10.8-4.2c0,0-8.9-0.8-11.4,1.7c0,0,0,0,0-0.1c0.4-2,1.8-6.7,7.5-10.2c0,0-5.2,1.5-7.7,4.3c0,0,0-0.1,0-0.1
			c0-1.7,0.1-3.4,0.3-5.1c0.1-1.1,0.4-2.2,0.7-3.7c0,0-3.1,3.8-3.6,11.9c-1.4-3.2-1.9-9.3-1.9-9.3c-2.7,6.6,0.4,11.5,1.9,13.3l0,0
			C744,185,734,189.8,728,199c-0.1-0.1-0.3-0.2-0.4-0.2c-0.2-0.1-0.4-0.1-0.6,0c-0.9,0.3-1.7,1.5-2.2,2.2c-0.6,1-1.2,2.1-1.4,3.3
			c-0.5,2.3,2.1,0.3,2.9-0.4c0.8-0.7,2.6-2.2,2.7-3.4c0-0.2-0.1-0.4-0.1-0.6l-0.2-0.2c1.9-2.5,9-11,19-14.3c1.2,10.7,9.9,15,9.9,15
			c-0.9-1.4-1.4-2-2-2.9c-1.1-1.7-1.3-2-2-3c-0.4-0.7-0.8-1.5-1.2-2.2c2.9,1.9,8.1,2,8.1,2c-6.7-2.3-8.5-5.3-9.3-7
			C755.6,190.1,762.2,188.1,762.2,188.1 M820.6,179.6c0,0-15.7-0.5-23.3-5.6c0,0,10.7,4.6,21.3,1.4c0,0-8.8,0.8-15-0.3
			c0,0,8.2-0.1,12-2.4c0,0-9.5,3.4-19.4-0.1c0,0,8.7,1.1,14.6-1.9c0,0-7.2,2.5-16.4,0.8c-0.3,0-0.4-0.1-0.4-0.1c0.2,0,0.3,0,0.4,0.1
			c1.8,0.2,8.9,0.8,14.3-5c0,0-5.9,4.9-14.9,4.2c0,0,6.9-3.7,8.5-7.8c0,0-6.1,5.8-9.9,6.9c0,0,0.3-4.3,4.5-12.1c0,0-4.7,4-5.6,11.3
			c0,0-3.6-4.7-2.6-15.3c0,0-3.5,7.4,1.4,15.1c0,0-7.5-7.7-7.8-16.3c0,0-0.6,7.9,6.1,15.7c0,0-9.6-7.3-12-17.8c0,0,1.1,10.2,10.7,18
			c0,0-9.1-4.6-14.9-17.6c0,0,2.4,10.9,15.5,19c0,0-11.3-5.8-17.9-17.2c0,0,3.2,10.9,17.5,17.8c0,0-5.7,0.1-15.5-8.1
			c0,0,3.9,7.5,16.3,9.8c0,0-2.6,2.1-9.5-0.7c0,0,5.6,3.9,11.5,1c-0.9,2.5-4,13.4-10,23c-6.8,10.8-15.1,21.3-16.6,22.7
			c0,0-1.4-2-4.7,1.5c-3.4,3.6-7.6,6.3-6.4,6.9c1.2,0.5,10.1-3.6,11.5-5.6c1.4-1.9,0.3-2.2,0.3-2.2s10.3-11.5,16.8-22.2
			c5.7-9.4,8.7-16.9,10.2-23.3c0.1,1.5,0.4,4.1,1.3,5.5c0,0-0.9-2.6-0.4-5.8c0,0,4.1,9.6,18.9,12.9c0,0-11.1-3.7-16.8-11.4
			c0,0,10.7,8.9,25.3,8.4c0,0-15.4-2.7-23.2-8.2C796.2,174.6,807.2,180.9,820.6,179.6 M846.6,216.4c-2.3-5.7-0.6-13-0.6-13
			c-3.1,9.2,0.7,14.6,0.7,14.6c-1.9-0.8-3-2.1-3-2.1c0.4,1,1.7,2,2.5,2.6c-4-1.3-9.1-2.2-16.2-2.2c-8,0-17.7,1.7-17.7,1.7
			s0.2-0.7-1.3-0.6c-1.5,0.1-6.8,3.6-6.9,4.4c-0.1,0.8,2.8-0.6,5.9-1.2c3.1-0.7,2.4-2.1,2.4-2.1c1.2-0.4,9.8-1.4,17.9-1.5
			c7.2-0.1,14.3,1.9,15.9,2.2c-3.5,2.2-3.3,6.6-3.3,6.6c0.8-4.7,2.8-5.4,2.8-5.4c-2.9,7.6-0.1,12.2-0.1,12.2
			c-1.2-8.1,0.8-11.2,0.8-11.2c-1,10.1,3.9,15.5,3.9,15.5c-4-7.4-3.4-15.5-3.4-15.5c0.1,9.8,5.2,14.8,5.2,14.8
			c-5.1-7.5-4.6-14-4.6-14c1,7.9,6.3,11.9,6.3,11.9c-4.9-4.8-5.7-12.5-5.7-12.5c2,6.3,6.5,8.6,6.5,8.6c-4.6-3-6.3-9.7-6.3-9.7
			c2.5,5.3,7.8,5.8,7.8,5.8c-6.1-3-7.5-6.5-7.5-6.5c4.3,2,8,0.7,8,0.7c-5.6-0.4-8.1-1.6-8.1-1.6c1.9-1.7,7.1-3.1,7.1-3.1
			c-2.8-0.5-7.1,2-7.1,2c2.7-5.2,7.3-6.8,7.3-6.8c-4.3,0.9-6.4,4-7.2,5.5c2.2-5.2,5.6-8.1,5.6-8.1c-3.6,2.2-5.9,7.4-5.9,7.4
			c1.4-6.6,6.5-10.6,6.5-10.6c-2.5,1.3-5.3,5.8-5.3,5.8c1.5-3.8,4.9-8.3,4.9-8.3c-5.2,4.7-6.3,12.1-6.3,12.1
			c-0.2-5.9,4.7-14.6,4.7-14.6c-5.2,6.8-5.4,15-5.4,15c-0.4-6.1,3.3-15.4,3.3-15.4C845.3,207.6,846.6,216.4,846.6,216.4
			 M867.6,155.9C867.6,155.9,867.6,155.9,867.6,155.9c1.6-1.5,2.5-4.6,2.5-4.6c-2.1,3.4-4.9,4.3-6.1,4.5c0,0,0,0,0,0
			c1.5-1.5,1-6.9,1-6.9c-2.3,2.4-2.6,5.2-2.5,6.5c-0.8-1.2-1.8-3.4-1.8-6.9c0,0-1.3,4,0.6,6.7c-1.1-0.5-2.9-1.6-4.2-5.6
			c0,0,0,3.1,1.2,4.9c-0.5-0.2-0.9-0.5-1.3-0.7c-0.6-0.4-0.8-0.5-1.8-1.2c-0.6-0.4-0.9-0.6-1.8-1.2c0,0,2.6,5.2,9.1,6
			c-2,6.1-7.1,10.3-8.6,11.5l-0.1-0.1c-0.1-0.1-0.3-0.1-0.4-0.1c-0.7,0-1.6,1.1-2.1,1.6c-0.4,0.5-1.6,2-0.2,1.7
			c0.7-0.1,1.3-0.5,2-0.9c0.4-0.3,1.2-0.8,1.4-1.3c0-0.1,0-0.2,0-0.4c0-0.1-0.1-0.2-0.1-0.3c5.5-3.6,8.4-9.7,9.3-11.8l0,0
			c1.1,0.9,4,2.8,8,1.1c0,0-3.7-0.3-5.6-1.2c4.9-0.3,7.2-2.2,7.2-2.2c-0.9,0.2-1.6,0.4-2.2,0.4C869.7,155.8,868.6,155.8,867.6,155.9
			"/>
	</g>
</g>
</svg>
